<svg xmlns="http://www.w3.org/2000/svg" xmlns:xlink="http://www.w3.org/1999/xlink" width="750" zoomAndPan="magnify" viewBox="0 0 562.5 562.499982" height="750" preserveAspectRatio="xMidYMid meet" version="1.0"><defs><clipPath id="9346c0041f"><path d="M 88.792969 0 L 473.199219 0 L 473.199219 562 L 88.792969 562 Z M 88.792969 0 " clip-rule="nonzero"/></clipPath></defs><g clip-path="url(#9346c0041f)"><path fill="#040606" d="M 270.636719 258.816406 C 272.296875 258.75 273.875 259.105469 275.316406 259.804688 C 276.757812 260.507812 278.066406 261.550781 279.15625 262.863281 C 280.253906 264.175781 281.148438 265.753906 281.753906 267.515625 C 282.375 269.28125 282.714844 271.226562 282.714844 273.28125 C 282.714844 275.027344 282.472656 276.703125 282.023438 278.261719 C 281.582031 279.824219 280.929688 281.269531 280.117188 282.539062 C 279.308594 283.816406 278.332031 284.929688 277.25 285.828125 C 276.152344 286.726562 274.945312 287.417969 273.664062 287.851562 L 273.664062 318.535156 C 274.945312 318.964844 276.152344 319.65625 277.25 320.554688 C 278.332031 321.453125 279.308594 322.558594 280.117188 323.832031 C 280.929688 325.105469 281.582031 326.542969 282.023438 328.09375 C 282.472656 329.644531 282.714844 331.308594 282.714844 333.039062 C 282.714844 335.109375 282.375 337.066406 281.753906 338.828125 C 281.148438 340.59375 280.253906 342.171875 279.15625 343.480469 C 278.066406 344.785156 276.757812 345.824219 275.316406 346.519531 C 273.875 347.214844 272.296875 347.566406 270.636719 347.503906 C 268.992188 347.4375 267.417969 346.96875 266.003906 346.175781 C 264.582031 345.382812 263.308594 344.261719 262.25 342.898438 C 261.179688 341.539062 260.320312 339.929688 259.726562 338.164062 C 259.144531 336.394531 258.8125 334.457031 258.8125 332.433594 C 258.8125 330.734375 259.042969 329.117188 259.476562 327.613281 C 259.910156 326.109375 260.53125 324.726562 261.316406 323.503906 C 262.101562 322.28125 263.042969 321.214844 264.109375 320.359375 C 265.175781 319.5 266.363281 318.851562 267.636719 318.453125 L 267.636719 287.929688 C 266.363281 287.535156 265.175781 286.882812 264.109375 286.023438 C 263.042969 285.164062 262.101562 284.101562 261.316406 282.871094 C 260.53125 281.644531 259.910156 280.253906 259.476562 278.746094 C 259.042969 277.230469 258.8125 275.597656 258.8125 273.886719 C 258.8125 271.878906 259.144531 269.949219 259.726562 268.1875 C 260.320312 266.417969 261.179688 264.808594 262.25 263.449219 C 263.308594 262.078125 264.582031 260.953125 266.003906 260.152344 C 267.417969 259.355469 268.992188 258.882812 270.636719 258.816406 Z M 443.632812 458.417969 L 428.84375 458.417969 L 428.84375 147.933594 L 443.632812 147.933594 Z M 88.792969 0.0859375 L 88.792969 561.914062 L 118.363281 561.914062 L 118.363281 29.65625 L 443.632812 29.65625 L 443.632812 118.363281 L 428.84375 118.363281 L 428.84375 44.441406 L 244.027344 74.011719 L 244.027344 532.34375 L 428.84375 561.914062 L 428.84375 487.988281 L 443.632812 487.988281 L 443.632812 561.914062 L 473.203125 561.914062 L 473.203125 0.0859375 L 88.792969 0.0859375 " fill-opacity="1" fill-rule="nonzero"/></g></svg>